<?xml version="1.0" encoding="UTF-8"?>
<svg xmlns="http://www.w3.org/2000/svg" viewBox="0 0 147.21 64">
  <defs>
    <style>
      .cls-1 {
        fill: #1f3b3b;
      }
    </style>
  </defs>
  <path class="cls-1" d="M132.99,22.57c-1.3,6.59-7.41,11.37-14.23,10.24-6.64-1.11-11.23-7.47-10.25-14.11,2.17-1.52,4.34-3.03,6.5-4.55,1.16-.81,2.44-1.56,3.27-2.74,1.5-2.15,1.44-4.89.08-7.08-.06-.1-.14-.19-.21-.27,0,0,0-.01-.01-.02-1.29-1.64-3.24-2.57-5.35-2.46-1.26.07-2.31.58-3.31,1.22-1.79-2.1-4.07-3.46-7.1-2.47-3.56,1.17-5.26,5.41-3.58,8.73.81,1.61,2.1,3.13,3.14,4.61,1.03,1.47,2.05,2.93,3.08,4.4-1.47,6.37-7.46,10.93-14.13,9.81-6.68-1.12-11.29-7.54-10.24-14.23.35-2.23-3.07-3.2-3.42-.94-1.34,8.53,3.98,17.01,12.71,18.59,6.14,1.11,12.14-1.49,15.68-6.19,1.65,5.52,6.09,10.01,12.21,11.12,8.6,1.56,16.91-4.16,18.59-12.71.44-2.23-2.98-3.19-3.42-.94ZM102.81,9.84c-.95-1.36-2.15-2.72-1.63-4.52.54-1.88,2.66-2.89,4.47-2.14,1.09.45,1.63,1.39,2.28,2.31.42.6,1.31,1,1.99.52,2.04-1.43,4.13-2.29,5.99-.12,1.93,3.24-1.35,5.03-3.64,6.63-1.7,1.19-3.4,2.38-5.09,3.56-1.46-2.08-2.91-4.16-4.37-6.25Z"/>
  <path class="cls-1" d="M90.37,45.92c-11.64.36-11.24,19.05.88,18.04,5.1-.43,7.81-4.2,7.81-9.14,0-4.9-3.63-9.06-8.68-8.9ZM91.06,51.23c.12-.66.81-2.23,1.53-2.38.73-.15,1.02.85,1.11,1.4.08.49.08,1.31-.05,1.79-.44,1.55-2.94,1.19-2.59-.81ZM87.25,50.08c.07-.34.34-1.15.72-1.23.72-.17,1.35.9,1.59,1.46.14.32.3.79.33,1.14.16,1.82-2.3,2.12-2.65.47-.11-.5-.09-1.33,0-1.83ZM85.54,55.89c-.63-.28-.95-1.22-1.08-1.85-.11-.53-.27-1.87.49-1.98.94-.13,2.49,1.7,2.5,2.59.02.96-1.03,1.63-1.91,1.24ZM90.92,60.43c-.1-.09-.38-.55-.53-.46,0,0-.03.09-.07.13-.4.41-.77.78-1.38.84-1.59.15-2.53-1.64-1.82-2.97.86-1.05,1.8-2.09,2.75-3.07.08-.08.56-.58.62-.57l2.59,2.75c.31.39.67.67.84,1.16.67,1.89-1.45,3.64-3,2.2ZM95.98,55.35c-.78,1.28-2.71.56-2.47-.96.08-.54.82-1.44,1.23-1.79.34-.29,1.14-.8,1.54-.41.62.6.1,2.5-.31,3.16Z"/>
  <path class="cls-1" d="M36.27,28.86v-2.65c0-5.04-3.08-7.44-7.81-7.44s-7.1,2.12-7.1,4.23v2.09h.16c1.21-1.12,2.4-1.87,5.6-1.87,2.33,0,3.42.34,3.42,1.74v.72h-.84c-6.23,0-8.96,1.93-8.96,5.73s4.02,5.45,7.32,5.45c6.23,0,8.22-1.77,8.22-8ZM30.66,30.63c0,1.56-.93,2.09-1.99,2.09-1.65,0-2.33-.56-2.33-1.65,0-1.15.9-1.71,3.14-1.71h1.18v1.28Z"/>
  <path class="cls-1" d="M49.99,23.69v-2.18c0-1.59-1.37-2.8-4.33-2.8-3.89,0-6.23,2.74-6.23,6.19v7.44c0,2.86,1.56,4.05,4.11,4.05h1.62v-10.24c0-2.09,1.12-2.8,2.55-2.8.78,0,1.34.06,2.09.34h.19Z"/>
  <path class="cls-1" d="M60.2,25.68c-6.23,0-8.96,1.93-8.96,5.73s4.02,5.45,7.32,5.45c6.23,0,8.22-1.77,8.22-8v-2.65c0-5.04-3.08-7.44-7.81-7.44s-7.1,2.12-7.1,4.23v2.09h.16c1.21-1.12,2.4-1.87,5.6-1.87,2.33,0,3.42.34,3.42,1.74v.72h-.84ZM61.17,29.36v1.28c0,1.56-.93,2.09-1.99,2.09-1.65,0-2.33-.56-2.33-1.65,0-1.15.9-1.71,3.14-1.71h1.18Z"/>
  <path class="cls-1" d="M18.93,45.88c-2.46,0-4.54,1.74-5.35,3.05-.56-1.4-2.58-3.05-5.26-3.05-.89,0-1.71.09-2.47.26-.03-3.86-.06-7.73-.09-11.59.75,1.28,2.09,2.33,4.39,2.33,4.67,0,8.09-3.58,8.09-9.43,0-5.29-3.77-8.68-8.78-8.68-6.07,0-9.46,3.58-9.46,9.71v9.06c.01,5.18.02,10.36.04,15.54,0,0,0,0,0,0-.02.31-.04.63-.04.96v6.01c0,2.18,1.21,3.46,3.86,3.46h2.05v-9.84c0-2.12.65-2.96,2.3-2.96,1.56,0,2.33.84,2.33,2.86v6.47c0,2.68,1.28,3.46,3.67,3.46h2.05v-9.87c0-1.71.56-2.93,2.21-2.93s2.46.81,2.46,3.02v6.32c0,2.12.72,3.46,3.86,3.46h2.05v-9.31c0-5.35-2.96-8.31-7.94-8.31ZM8.78,23.29c2.43,0,3.55,1.12,3.55,4.79,0,2.55-1.03,4.2-2.89,4.2-2.02,0-3.58-1.28-3.58-4.92,0-2.52,1.31-4.08,2.93-4.08Z"/>
  <path class="cls-1" d="M37.45,45.88c-4.89,0-7.1,2.12-7.1,4.23v2.09h.16c1.21-1.12,2.4-1.87,5.6-1.87,2.33,0,3.42.34,3.42,1.74v.72h-.84c-6.23,0-8.96,1.93-8.96,5.73s4.02,5.45,7.32,5.45c6.23,0,8.22-1.77,8.22-8v-2.65c0-5.04-3.08-7.44-7.81-7.44ZM39.66,57.74c0,1.56-.93,2.09-1.99,2.09-1.65,0-2.33-.56-2.33-1.65,0-1.15.9-1.71,3.14-1.71h1.18v1.28Z"/>
  <path class="cls-1" d="M57.43,53.07c-3.58-.59-3.95-.81-3.95-1.46,0-.72.72-1.31,2.93-1.31s4.11.59,5.26,1.43h.16v-1.77c0-2.55-2.3-4.08-6.1-4.08s-7.81,2.09-7.81,6.19c0,2.74,1.62,4.14,4.7,4.58,3.55.5,3.95.81,3.95,1.59,0,.84-.68,1.34-2.83,1.34-2.43,0-4.14-.65-5.26-1.49h-.16v1.71c0,2.49,1.68,4.2,6.35,4.2s7.56-2.33,7.56-6.01c0-2.89-1.93-4.45-4.79-4.92Z"/>
  <path class="cls-1" d="M74.15,45.91c-6.04,0-9.43,4.2-9.43,9.09,0,5.35,3.7,8.87,8.9,8.87,3.11,0,5.45-1.84,5.45-4.11v-1.77h-.06c-1.03.59-2.3.97-4.14.97-2.61,0-4.23-1.37-4.23-4.3,0-2.4,1.62-3.86,4.51-3.86,1.65,0,3.27.62,3.8,1.18h.16v-2.09c0-2.21-2.24-3.98-4.95-3.98Z"/>
  <path class="cls-1" d="M108.08,42.21h-.62c-1.25,0-2.3.56-3.08,1.15-1.15.87-2.05,2.12-2.05,3.67v10.61c0,4.7,3.14,6.1,6.07,6.1,3.08,0,4.39-1.31,4.39-2.74v-2.3h-.16c-.62.25-1.28.37-2.68.37-1.15,0-1.87-.68-1.87-1.84v-6.19h2.12c1.34,0,2.89-1.12,2.89-2.58v-2.09h-5.01v-4.17Z"/>
  <path class="cls-1" d="M122.43,45.88c-4.89,0-7.1,2.12-7.1,4.23v2.09h.16c1.21-1.12,2.4-1.87,5.6-1.87,2.33,0,3.42.34,3.42,1.74v.72h-.84c-6.23,0-8.96,1.93-8.96,5.73s4.02,5.45,7.32,5.45c6.23,0,8.22-1.77,8.22-8v-2.65c0-5.04-3.08-7.44-7.81-7.44ZM124.64,57.74c0,1.56-.93,2.09-1.99,2.09-1.65,0-2.33-.56-2.33-1.65,0-1.15.9-1.71,3.14-1.71h1.18v1.28Z"/>
  <path class="cls-1" d="M142.42,53.07c-3.58-.59-3.95-.81-3.95-1.46,0-.72.72-1.31,2.93-1.31s4.11.59,5.26,1.43h.16v-1.77c0-2.55-2.3-4.08-6.1-4.08s-7.81,2.09-7.81,6.19c0,2.74,1.62,4.14,4.7,4.58,3.55.5,3.95.81,3.95,1.59,0,.84-.68,1.34-2.83,1.34-2.43,0-4.14-.65-5.26-1.49h-.16v1.71c0,2.49,1.68,4.2,6.35,4.2s7.56-2.33,7.56-6.01c0-2.89-1.93-4.45-4.79-4.92Z"/></svg>
