<?xml version="1.0" encoding="UTF-8"?>
<svg id="Capa_1" xmlns="http://www.w3.org/2000/svg" viewBox="0 0 2000 869.5">
  <defs>
    <style>
      .cls-1 {
        fill: #0a7b8f;
      }
    </style>
  </defs>
  <path class="cls-1" d="M1806.76,306.69c-17.64,89.6-100.69,154.54-193.27,139.05-90.26-15.1-152.57-101.51-139.26-191.72,29.45-20.6,58.9-41.21,88.36-61.81,15.82-11.07,33.17-21.17,44.43-37.26,20.45-29.2,19.59-66.39,1.08-96.14-.88-1.42-1.86-2.63-2.9-3.7-.08-.1-.12-.2-.19-.3-17.59-22.3-44-34.93-72.62-33.38-17.18.94-31.32,7.86-44.91,16.58-24.36-28.52-55.33-47.02-96.52-33.51-48.42,15.88-71.42,73.52-48.66,118.58,11.06,21.9,28.58,42.51,42.6,62.57,13.93,19.92,27.86,39.83,41.78,59.75-19.99,86.6-101.42,148.47-192,133.32-90.78-15.18-153.32-102.5-139.05-193.27,4.77-30.35-41.67-43.42-46.48-12.81-18.21,115.9,54.1,231.07,172.72,252.57,83.48,15.13,164.92-20.24,212.96-84.06,22.46,75.01,82.77,136.03,165.84,151.08,116.83,21.17,229.68-56.51,252.57-172.72,5.97-30.3-40.49-43.27-46.48-12.81ZM1396.71,133.74c-12.97-18.54-29.23-37.02-22.19-61.35,7.39-25.58,36.19-39.28,60.79-29.1,14.76,6.1,22.19,18.93,30.92,31.4,5.73,8.19,17.73,13.63,27.06,7.1,27.67-19.39,56.07-31.04,81.43-1.68,26.17,43.97-18.31,68.32-49.46,90.11-23.06,16.13-46.13,32.27-69.19,48.4-19.78-28.29-39.57-56.58-59.35-84.87Z"/>
  <path class="cls-1" d="M1227.82,623.85c-158.2,4.83-152.7,258.87,11.9,245.11,69.25-5.79,106.14-57.04,106.08-124.14-.05-66.51-49.31-123.06-117.98-120.97ZM1237.16,696.03c1.57-8.95,11.01-30.28,20.82-32.34,9.95-2.09,13.92,11.56,15.1,19.06,1.06,6.69,1.13,17.8-.73,24.31-6,21.05-39.97,16.18-35.2-11.03ZM1185.33,680.44c.89-4.65,4.67-15.58,9.81-16.77,9.79-2.26,18.39,12.28,21.6,19.83,1.87,4.4,4.06,10.75,4.47,15.46,2.16,24.79-31.23,28.78-36.01,6.4-1.45-6.79-1.19-18.09.11-24.93ZM1162.09,759.31c-8.55-3.77-12.9-16.62-14.69-25.18-1.51-7.18-3.62-25.47,6.69-26.95,12.76-1.82,33.79,23.12,33.99,35.24.22,13.09-13.97,22.19-26,16.89ZM1235.18,820.95c-1.39-1.29-5.21-7.41-7.16-6.27-.1.06-.47,1.25-.95,1.74-5.41,5.61-10.49,10.66-18.77,11.46-21.57,2.1-34.4-22.28-24.7-40.41,11.75-14.27,24.47-28.44,37.38-41.76,1.1-1.13,7.56-7.95,8.38-7.8l35.13,37.41c4.2,5.26,9.12,9.11,11.46,15.73,9.05,25.65-19.72,49.44-40.78,29.91ZM1303.95,751.94c-10.66,17.4-36.81,7.61-33.57-13.03,1.15-7.34,11.1-19.55,16.76-24.32,4.64-3.9,15.51-10.82,20.95-5.53,8.45,8.22,1.34,33.92-4.15,42.87Z"/>
  <path class="cls-1" d="M492.69,392.07v-35.95c0-68.51-41.87-101.07-106.15-101.07s-96.42,28.76-96.42,57.51v28.33h2.11c16.49-15.22,32.56-25.37,76.12-25.37,31.72,0,46.52,4.65,46.52,23.68v9.73h-11.42c-84.58,0-121.8,26.22-121.8,77.81s54.55,74.01,99.38,74.01c84.58,0,111.65-24.1,111.65-108.68ZM416.57,416.17c0,21.15-12.69,28.34-27.07,28.34-22.41,0-31.72-7.61-31.72-22.42,0-15.64,12.27-23.26,42.71-23.26h16.07v17.34Z"/>
  <path class="cls-1" d="M679.21,321.87v-29.6c0-21.57-18.61-38.06-58.78-38.06-52.86,0-84.58,37.22-84.58,84.16v101.07c0,38.91,21.14,54.98,55.82,54.98h21.99v-139.13c0-28.33,15.22-38.06,34.68-38.06,10.57,0,18.19.84,28.34,4.65h2.54Z"/>
  <path class="cls-1" d="M817.93,348.93c-84.58,0-121.8,26.22-121.8,77.81s54.55,74.01,99.38,74.01c84.58,0,111.65-24.1,111.65-108.68v-35.95c0-68.51-41.87-101.07-106.15-101.07s-96.42,28.76-96.42,57.51v28.33h2.11c16.49-15.22,32.56-25.37,76.12-25.37,31.72,0,46.52,4.65,46.52,23.68v9.73h-11.42ZM831.04,398.84v17.34c0,21.15-12.69,28.34-27.07,28.34-22.41,0-31.72-7.61-31.72-22.42,0-15.64,12.27-23.26,42.71-23.26h16.07Z"/>
  <path class="cls-1" d="M257.12,623.37c-33.41,0-61.74,23.68-72.74,41.44-7.61-19.03-35.1-41.44-71.47-41.44-12.15,0-23.26,1.27-33.5,3.52-.39-52.48-.78-104.95-1.18-157.43,10.15,17.34,28.33,31.72,59.63,31.72,63.44,0,109.95-48.63,109.95-128.14,0-71.89-51.17-117.99-119.26-117.99C46.1,255.05,0,303.68,0,387v123.06c.17,70.38.34,140.76.5,211.14,0,0,.01-.02.02-.02-.33,4.23-.52,8.55-.52,12.99v81.62c0,29.6,16.49,46.94,52.44,46.94h27.91v-133.63c0-28.76,8.88-40.18,31.3-40.18,21.14,0,31.72,11.42,31.72,38.91v87.96c0,36.37,17.34,46.94,49.9,46.94h27.91v-134.06c0-23.26,7.61-39.75,30.03-39.75s33.41,10.99,33.41,41.02v85.85c0,28.76,9.73,46.94,52.44,46.94h27.91v-126.45c0-72.74-40.17-112.92-107.84-112.92ZM119.26,316.37c32.99,0,48.21,15.22,48.21,65.13,0,34.68-13.96,57.09-39.33,57.09-27.49,0-48.63-17.34-48.63-66.82,0-34.25,17.76-55.4,39.75-55.4Z"/>
  <path class="cls-1" d="M508.77,623.37c-66.4,0-96.42,28.75-96.42,57.51v28.34h2.11c16.49-15.22,32.56-25.38,76.12-25.38,31.72,0,46.52,4.65,46.52,23.68v9.73h-11.42c-84.58,0-121.8,26.22-121.8,77.81s54.55,74,99.38,74c84.58,0,111.65-24.1,111.65-108.69v-35.94c0-68.51-41.87-101.07-106.15-101.07ZM538.8,784.5c0,21.15-12.69,28.34-27.07,28.34-22.41,0-31.72-7.61-31.72-22.41,0-15.65,12.27-23.26,42.71-23.26h16.07v17.34Z"/>
  <path class="cls-1" d="M780.29,721.06c-48.63-8.04-53.71-11-53.71-19.88,0-9.73,9.73-17.76,39.75-17.76s55.82,8.04,71.47,19.45h2.11v-24.1c0-34.68-31.29-55.4-82.89-55.4s-106.15,28.34-106.15,84.16c0,37.22,21.99,56.25,63.86,62.17,48.21,6.77,53.71,10.99,53.71,21.57,0,11.42-9.3,18.19-38.48,18.19-32.99,0-56.25-8.88-71.47-20.3h-2.11v23.26c0,33.83,22.84,57.09,86.27,57.09s102.77-31.72,102.77-81.62c0-39.33-26.22-60.47-65.13-66.81Z"/>
  <path class="cls-1" d="M1007.4,623.8c-82.04,0-128.14,57.09-128.14,123.49,0,72.74,50.33,120.53,120.95,120.53,42.29,0,74.01-24.95,74.01-55.83v-24.11h-.84c-13.96,8.04-31.3,13.11-56.25,13.11-35.52,0-57.51-18.61-57.51-58.36,0-32.57,21.99-52.44,61.32-52.44,22.41,0,44.4,8.45,51.59,16.07h2.11v-28.33c0-30.02-30.45-54.13-67.24-54.13Z"/>
  <path class="cls-1" d="M1468.39,573.47h-8.46c-16.92,0-31.29,7.61-41.87,15.65-15.65,11.84-27.91,28.75-27.91,49.9v144.21c0,63.86,42.71,82.89,82.46,82.89,41.87,0,59.63-17.76,59.63-37.21v-31.3h-2.11c-8.46,3.38-17.34,5.08-36.37,5.08-15.65,0-25.37-9.31-25.37-24.95v-84.16h28.76c18.19,0,39.33-15.22,39.33-35.1v-28.34h-68.09v-56.67Z"/>
  <path class="cls-1" d="M1663.36,623.37c-66.4,0-96.42,28.75-96.42,57.51v28.34h2.11c16.49-15.22,32.56-25.38,76.12-25.38,31.72,0,46.52,4.65,46.52,23.68v9.73h-11.42c-84.58,0-121.8,26.22-121.8,77.81s54.55,74,99.38,74c84.58,0,111.65-24.1,111.65-108.69v-35.94c0-68.51-41.87-101.07-106.15-101.07ZM1693.38,784.5c0,21.15-12.69,28.34-27.07,28.34-22.41,0-31.72-7.61-31.72-22.41,0-15.65,12.27-23.26,42.71-23.26h16.07v17.34Z"/>
  <path class="cls-1" d="M1934.87,721.06c-48.63-8.04-53.71-11-53.71-19.88,0-9.73,9.73-17.76,39.75-17.76s55.82,8.04,71.47,19.45h2.11v-24.1c0-34.68-31.29-55.4-82.89-55.4s-106.15,28.34-106.15,84.16c0,37.22,21.99,56.25,63.86,62.17,48.21,6.77,53.71,10.99,53.71,21.57,0,11.42-9.3,18.19-38.48,18.19-32.99,0-56.25-8.88-71.47-20.3h-2.11v23.26c0,33.83,22.84,57.09,86.27,57.09s102.77-31.72,102.77-81.62c0-39.33-26.22-60.47-65.13-66.81Z"/>
</svg>